<?xml version="1.0" encoding="UTF-8"?>
<svg xmlns="http://www.w3.org/2000/svg" xmlns:xlink="http://www.w3.org/1999/xlink" width="150px" height="51px" viewBox="0 0 149 51" version="1.1">
<g id="surface1">
<path style=" stroke:none;fill-rule:nonzero;fill:rgb(13.725491%,22.352941%,74.509805%);fill-opacity:1;" d="M 20.226562 0 C 22.703125 0 25.175781 0 27.726562 0 C 27.730469 3.675781 27.730469 3.675781 27.730469 5.210938 C 27.730469 6.273438 27.730469 7.332031 27.734375 8.394531 C 27.734375 9.167969 27.734375 9.941406 27.734375 10.714844 C 27.734375 11.125 27.734375 11.535156 27.734375 11.945312 C 27.734375 12.328125 27.738281 12.714844 27.738281 13.101562 C 27.738281 13.242188 27.738281 13.382812 27.738281 13.523438 C 27.738281 13.71875 27.738281 13.910156 27.738281 14.105469 C 27.738281 14.265625 27.738281 14.265625 27.738281 14.429688 C 27.726562 14.691406 27.726562 14.691406 27.640625 14.945312 C 27.699219 14.945312 27.753906 14.945312 27.8125 14.945312 C 27.832031 14.894531 27.855469 14.84375 27.878906 14.792969 C 27.980469 14.609375 28.070312 14.488281 28.234375 14.355469 C 28.289062 14.355469 28.34375 14.355469 28.402344 14.355469 C 28.421875 14.300781 28.445312 14.246094 28.46875 14.191406 C 28.570312 14.015625 28.570312 14.015625 28.824219 13.933594 C 28.851562 13.847656 28.878906 13.765625 28.90625 13.679688 C 28.960938 13.679688 29.019531 13.679688 29.074219 13.679688 C 29.074219 13.625 29.074219 13.566406 29.074219 13.511719 C 29.128906 13.511719 29.1875 13.511719 29.242188 13.511719 C 29.242188 13.453125 29.242188 13.398438 29.242188 13.339844 C 29.371094 13.21875 29.371094 13.21875 29.535156 13.085938 C 29.761719 12.90625 29.761719 12.90625 29.917969 12.664062 C 29.972656 12.664062 30.027344 12.664062 30.085938 12.664062 C 30.113281 12.582031 30.140625 12.5 30.171875 12.414062 C 30.226562 12.414062 30.28125 12.414062 30.339844 12.414062 C 30.339844 12.355469 30.339844 12.300781 30.339844 12.242188 C 30.394531 12.242188 30.449219 12.242188 30.507812 12.242188 C 30.535156 12.160156 30.5625 12.078125 30.59375 11.988281 C 30.648438 11.988281 30.703125 11.988281 30.761719 11.988281 C 30.761719 11.933594 30.761719 11.878906 30.761719 11.820312 C 30.816406 11.820312 30.871094 11.820312 30.929688 11.820312 C 30.929688 11.765625 30.929688 11.710938 30.929688 11.652344 C 31.046875 11.515625 31.046875 11.515625 31.183594 11.398438 C 31.238281 11.398438 31.292969 11.398438 31.351562 11.398438 C 31.351562 11.34375 31.351562 11.289062 31.351562 11.230469 C 31.464844 11.09375 31.464844 11.09375 31.601562 10.976562 C 31.660156 10.976562 31.714844 10.976562 31.773438 10.976562 C 31.773438 10.921875 31.773438 10.867188 31.773438 10.808594 C 31.882812 10.703125 31.882812 10.703125 32.035156 10.582031 C 32.25 10.402344 32.433594 10.226562 32.609375 10.011719 C 32.84375 9.726562 33.105469 9.496094 33.382812 9.257812 C 33.585938 9.078125 33.773438 8.890625 33.964844 8.695312 C 34.105469 8.554688 34.242188 8.414062 34.382812 8.273438 C 34.449219 8.210938 34.515625 8.144531 34.582031 8.078125 C 35.808594 6.847656 37.035156 5.621094 38.261719 4.390625 C 38.59375 4.523438 38.8125 4.753906 39.058594 5.003906 C 39.125 5.070312 39.125 5.070312 39.195312 5.140625 C 39.292969 5.238281 39.386719 5.335938 39.484375 5.433594 C 39.636719 5.589844 39.792969 5.746094 39.945312 5.898438 C 40.269531 6.230469 40.597656 6.558594 40.921875 6.886719 C 41.296875 7.269531 41.675781 7.648438 42.054688 8.03125 C 42.207031 8.183594 42.355469 8.335938 42.507812 8.492188 C 42.597656 8.582031 42.691406 8.675781 42.785156 8.769531 C 42.828125 8.8125 42.867188 8.855469 42.910156 8.898438 C 43.105469 9.09375 43.222656 9.199219 43.488281 9.289062 C 43.488281 9.425781 43.488281 9.566406 43.488281 9.710938 C 43.375 9.765625 43.265625 9.820312 43.148438 9.878906 C 43.148438 9.933594 43.148438 9.992188 43.148438 10.046875 C 43.035156 10.160156 43.035156 10.160156 42.878906 10.285156 C 42.617188 10.5 42.378906 10.734375 42.136719 10.976562 C 39.105469 14.015625 36.070312 17.054688 33.035156 20.097656 C 40.421875 20.136719 40.421875 20.136719 47.953125 20.179688 C 47.953125 22.605469 47.953125 25.027344 47.953125 27.527344 C 43.003906 27.554688 38.050781 27.582031 32.953125 27.609375 C 35.046875 29.777344 35.046875 29.777344 37.25 31.832031 C 37.390625 32 37.53125 32.167969 37.671875 32.339844 C 37.753906 32.394531 37.839844 32.449219 37.925781 32.507812 C 37.925781 32.5625 37.925781 32.621094 37.925781 32.675781 C 37.980469 32.675781 38.035156 32.675781 38.09375 32.675781 C 38.214844 32.804688 38.214844 32.804688 38.34375 32.96875 C 38.527344 33.195312 38.527344 33.195312 38.765625 33.351562 C 38.765625 33.410156 38.765625 33.464844 38.765625 33.523438 C 38.820312 33.542969 38.875 33.566406 38.929688 33.589844 C 39.105469 33.691406 39.105469 33.691406 39.1875 33.945312 C 39.242188 33.972656 39.300781 34 39.355469 34.027344 C 39.414062 34.054688 39.46875 34.082031 39.527344 34.113281 C 39.554688 34.195312 39.582031 34.28125 39.609375 34.367188 C 39.722656 34.425781 39.832031 34.480469 39.945312 34.535156 C 40.066406 34.640625 40.179688 34.75 40.292969 34.863281 C 40.359375 34.929688 40.425781 34.996094 40.496094 35.066406 C 40.566406 35.140625 40.636719 35.210938 40.710938 35.289062 C 40.820312 35.398438 40.820312 35.398438 40.933594 35.511719 C 41.132812 35.710938 41.328125 35.910156 41.523438 36.105469 C 41.800781 36.386719 42.074219 36.667969 42.351562 36.945312 C 42.5 37.09375 42.648438 37.242188 42.792969 37.390625 C 42.859375 37.460938 42.925781 37.527344 42.996094 37.59375 C 43.082031 37.683594 43.082031 37.683594 43.171875 37.773438 C 43.3125 37.917969 43.3125 37.917969 43.488281 37.996094 C 43.503906 38.191406 43.503906 38.191406 43.488281 38.417969 C 43.359375 38.566406 43.359375 38.566406 43.1875 38.703125 C 42.835938 38.988281 42.515625 39.296875 42.199219 39.621094 C 42.085938 39.734375 41.976562 39.847656 41.863281 39.960938 C 41.6875 40.140625 41.515625 40.316406 41.339844 40.492188 C 41.171875 40.664062 41 40.835938 40.828125 41.007812 C 40.75 41.089844 40.75 41.089844 40.671875 41.171875 C 40.546875 41.300781 40.414062 41.421875 40.285156 41.542969 C 40.226562 41.542969 40.171875 41.542969 40.117188 41.542969 C 40.085938 41.617188 40.085938 41.617188 40.050781 41.691406 C 39.929688 41.910156 39.796875 42.054688 39.609375 42.21875 C 39.554688 42.21875 39.5 42.21875 39.441406 42.21875 C 39.417969 42.273438 39.394531 42.328125 39.371094 42.382812 C 39.273438 42.554688 39.273438 42.554688 39.019531 42.640625 C 38.992188 42.695312 38.964844 42.753906 38.933594 42.808594 C 38.90625 42.867188 38.878906 42.921875 38.851562 42.976562 C 38.769531 43.007812 38.683594 43.035156 38.597656 43.0625 C 38.570312 43.148438 38.542969 43.230469 38.515625 43.316406 C 38.375 43.289062 38.234375 43.261719 38.09375 43.230469 C 38.09375 43.175781 38.09375 43.121094 38.09375 43.0625 C 38.039062 43.0625 37.980469 43.0625 37.925781 43.0625 C 37.78125 42.925781 37.640625 42.785156 37.503906 42.640625 C 37.4375 42.574219 37.371094 42.507812 37.304688 42.441406 C 34.109375 39.242188 30.917969 36.042969 27.726562 32.847656 C 27.726562 37.777344 27.726562 42.710938 27.726562 47.792969 C 25.25 47.792969 22.777344 47.792969 20.226562 47.792969 C 20.199219 42.886719 20.171875 37.984375 20.140625 32.929688 C 18.75 34.324219 17.359375 35.71875 15.929688 37.152344 C 15.871094 37.152344 15.816406 37.152344 15.757812 37.152344 C 15.738281 37.207031 15.714844 37.261719 15.691406 37.316406 C 15.589844 37.488281 15.589844 37.488281 15.339844 37.574219 C 15.308594 37.628906 15.28125 37.6875 15.253906 37.742188 C 15.226562 37.800781 15.199219 37.855469 15.167969 37.914062 C 15.085938 37.941406 15.003906 37.96875 14.917969 37.996094 C 14.917969 38.050781 14.917969 38.109375 14.917969 38.164062 C 14.859375 38.164062 14.804688 38.164062 14.75 38.164062 C 14.71875 38.25 14.691406 38.332031 14.664062 38.417969 C 14.609375 38.417969 14.554688 38.417969 14.496094 38.417969 C 14.496094 38.472656 14.496094 38.53125 14.496094 38.585938 C 14.441406 38.585938 14.382812 38.585938 14.328125 38.585938 C 14.300781 38.671875 14.269531 38.753906 14.242188 38.839844 C 14.1875 38.839844 14.132812 38.839844 14.074219 38.839844 C 14.074219 38.898438 14.074219 38.953125 14.074219 39.011719 C 14.019531 39.011719 13.960938 39.011719 13.90625 39.011719 C 13.878906 39.09375 13.851562 39.175781 13.820312 39.261719 C 13.765625 39.261719 13.710938 39.261719 13.652344 39.261719 C 13.652344 39.320312 13.652344 39.375 13.652344 39.433594 C 13.597656 39.433594 13.542969 39.433594 13.484375 39.433594 C 13.457031 39.515625 13.429688 39.597656 13.398438 39.683594 C 13.34375 39.683594 13.289062 39.683594 13.230469 39.683594 C 13.230469 39.742188 13.230469 39.796875 13.230469 39.855469 C 13.175781 39.855469 13.121094 39.855469 13.0625 39.855469 C 13.0625 39.910156 13.0625 39.964844 13.0625 40.023438 C 12.945312 40.160156 12.945312 40.160156 12.808594 40.277344 C 12.753906 40.277344 12.699219 40.277344 12.640625 40.277344 C 12.640625 40.332031 12.640625 40.386719 12.640625 40.445312 C 12.527344 40.582031 12.527344 40.582031 12.386719 40.699219 C 12.332031 40.699219 12.277344 40.699219 12.21875 40.699219 C 12.21875 40.753906 12.21875 40.808594 12.21875 40.867188 C 12.109375 40.972656 12.109375 40.972656 11.957031 41.09375 C 11.742188 41.273438 11.558594 41.449219 11.382812 41.664062 C 11.152344 41.945312 10.894531 42.167969 10.621094 42.402344 C 10.441406 42.5625 10.296875 42.738281 10.144531 42.925781 C 9.964844 43.136719 9.859375 43.230469 9.609375 43.359375 C 9.308594 43.308594 9.277344 43.253906 9.09375 43.023438 C 8.746094 42.613281 8.371094 42.234375 7.992188 41.855469 C 7.917969 41.78125 7.84375 41.707031 7.769531 41.632812 C 7.617188 41.480469 7.464844 41.328125 7.3125 41.175781 C 7.078125 40.941406 6.847656 40.707031 6.613281 40.476562 C 6.464844 40.324219 6.316406 40.175781 6.167969 40.027344 C 6.097656 39.957031 6.03125 39.890625 5.960938 39.816406 C 5.664062 39.523438 5.371094 39.238281 5.050781 38.972656 C 4.929688 38.867188 4.929688 38.867188 4.804688 38.757812 C 4.804688 38.699219 4.804688 38.644531 4.804688 38.585938 C 4.722656 38.558594 4.722656 38.558594 4.640625 38.53125 C 4.464844 38.417969 4.464844 38.417969 4.402344 38.195312 C 4.394531 38.132812 4.390625 38.066406 4.382812 37.996094 C 4.441406 37.964844 4.503906 37.929688 4.566406 37.894531 C 4.824219 37.730469 5.015625 37.550781 5.230469 37.335938 C 5.269531 37.296875 5.3125 37.253906 5.355469 37.210938 C 5.488281 37.074219 5.625 36.9375 5.761719 36.800781 C 5.859375 36.703125 5.957031 36.605469 6.054688 36.507812 C 6.261719 36.296875 6.472656 36.085938 6.683594 35.875 C 7.011719 35.542969 7.34375 35.210938 7.675781 34.878906 C 8.199219 34.351562 8.726562 33.824219 9.25 33.296875 C 10.1875 32.351562 11.125 31.410156 12.066406 30.464844 C 12.394531 30.136719 12.726562 29.804688 13.054688 29.472656 C 13.257812 29.265625 13.464844 29.058594 13.667969 28.855469 C 13.765625 28.757812 13.859375 28.664062 13.953125 28.566406 C 14.082031 28.4375 14.214844 28.308594 14.34375 28.175781 C 14.414062 28.105469 14.488281 28.03125 14.5625 27.957031 C 14.75 27.78125 14.75 27.78125 15 27.609375 C 10.050781 27.582031 5.101562 27.554688 0 27.527344 C 0 25.101562 0 22.679688 0 20.179688 C 4.921875 20.152344 9.84375 20.125 14.917969 20.097656 C 13.207031 18.296875 13.207031 18.296875 11.378906 16.632812 C 11.140625 16.414062 11.140625 16.414062 10.957031 16.210938 C 10.957031 16.15625 10.957031 16.101562 10.957031 16.042969 C 10.871094 16.015625 10.789062 15.988281 10.703125 15.957031 C 10.703125 15.902344 10.703125 15.847656 10.703125 15.789062 C 10.648438 15.789062 10.59375 15.789062 10.535156 15.789062 C 10.535156 15.734375 10.535156 15.679688 10.535156 15.621094 C 10.449219 15.59375 10.367188 15.566406 10.28125 15.535156 C 10.28125 15.480469 10.28125 15.425781 10.28125 15.367188 C 10.226562 15.34375 10.175781 15.324219 10.117188 15.300781 C 9.945312 15.199219 9.945312 15.199219 9.859375 14.945312 C 9.75 14.886719 9.636719 14.832031 9.523438 14.777344 C 9.375 14.648438 9.375 14.648438 9.269531 14.523438 C 9.269531 14.46875 9.269531 14.410156 9.269531 14.355469 C 9.222656 14.335938 9.175781 14.316406 9.128906 14.296875 C 8.875 14.152344 8.699219 13.972656 8.496094 13.765625 C 8.453125 13.722656 8.410156 13.679688 8.367188 13.636719 C 8.226562 13.496094 8.085938 13.351562 7.949219 13.210938 C 7.851562 13.113281 7.753906 13.015625 7.65625 12.917969 C 7.398438 12.660156 7.144531 12.402344 6.886719 12.144531 C 6.480469 11.730469 6.070312 11.316406 5.660156 10.902344 C 5.515625 10.757812 5.371094 10.613281 5.230469 10.46875 C 5.140625 10.382812 5.054688 10.292969 4.96875 10.203125 C 4.890625 10.128906 4.8125 10.050781 4.734375 9.96875 C 4.566406 9.792969 4.566406 9.792969 4.382812 9.710938 C 4.425781 9.367188 4.492188 9.226562 4.765625 9.011719 C 5.15625 8.6875 5.507812 8.335938 5.863281 7.972656 C 6 7.835938 6.136719 7.699219 6.269531 7.566406 C 6.480469 7.351562 6.691406 7.136719 6.902344 6.921875 C 7.109375 6.714844 7.3125 6.507812 7.519531 6.300781 C 7.613281 6.203125 7.613281 6.203125 7.710938 6.105469 C 7.796875 6.015625 7.796875 6.015625 7.886719 5.925781 C 7.9375 5.875 7.992188 5.824219 8.042969 5.769531 C 8.175781 5.65625 8.175781 5.65625 8.34375 5.65625 C 8.371094 5.589844 8.371094 5.589844 8.394531 5.519531 C 8.558594 5.242188 8.769531 5.015625 9.015625 4.8125 C 9.074219 4.8125 9.128906 4.8125 9.1875 4.8125 C 9.21875 4.730469 9.21875 4.730469 9.25 4.648438 C 9.355469 4.476562 9.355469 4.476562 9.503906 4.398438 C 9.691406 4.390625 9.691406 4.390625 9.894531 4.542969 C 10.011719 4.660156 10.011719 4.660156 10.128906 4.777344 C 10.171875 4.820312 10.214844 4.863281 10.257812 4.90625 C 10.402344 5.050781 10.546875 5.195312 10.6875 5.34375 C 10.792969 5.445312 10.898438 5.550781 11.003906 5.65625 C 11.285156 5.9375 11.5625 6.222656 11.84375 6.503906 C 12.105469 6.769531 12.367188 7.03125 12.632812 7.296875 C 13.402344 8.070312 14.167969 8.84375 14.9375 9.621094 C 17.515625 12.214844 17.515625 12.214844 20.140625 14.859375 C 20.183594 7.503906 20.183594 7.503906 20.226562 0 Z M 17.109375 17.648438 C 17.058594 17.699219 17.007812 17.753906 16.953125 17.808594 C 16.515625 18.28125 16.171875 18.785156 15.84375 19.335938 C 15.808594 19.394531 15.769531 19.453125 15.730469 19.511719 C 15.554688 19.800781 15.464844 20.007812 15.507812 20.347656 C 15.449219 20.347656 15.394531 20.347656 15.339844 20.347656 C 15.058594 21.066406 14.871094 21.761719 14.765625 22.523438 C 14.753906 22.59375 14.742188 22.667969 14.734375 22.742188 C 14.621094 23.59375 14.65625 24.410156 14.773438 25.257812 C 14.789062 25.375 14.789062 25.375 14.804688 25.492188 C 14.890625 26.113281 14.988281 26.796875 15.421875 27.273438 C 15.488281 27.191406 15.554688 27.109375 15.621094 27.023438 C 15.753906 26.863281 15.828125 26.773438 16.011719 26.683594 C 16.011719 26.625 16.011719 26.570312 16.011719 26.511719 C 16.066406 26.492188 16.121094 26.46875 16.175781 26.445312 C 16.378906 26.355469 16.378906 26.355469 16.433594 26.089844 C 16.546875 26.035156 16.660156 25.976562 16.769531 25.921875 C 16.796875 25.839844 16.828125 25.753906 16.855469 25.667969 C 16.96875 25.613281 17.078125 25.554688 17.191406 25.5 C 17.21875 25.417969 17.246094 25.332031 17.277344 25.246094 C 17.347656 25.210938 17.347656 25.210938 17.417969 25.179688 C 17.699219 25.03125 17.917969 24.816406 18.121094 24.570312 C 18.121094 24.515625 18.121094 24.460938 18.121094 24.402344 C 18.1875 24.375 18.1875 24.375 18.253906 24.347656 C 18.539062 24.1875 18.753906 23.960938 18.980469 23.730469 C 19.035156 23.675781 19.085938 23.625 19.140625 23.570312 C 19.308594 23.402344 19.480469 23.230469 19.652344 23.058594 C 19.769531 22.941406 19.886719 22.820312 20.007812 22.703125 C 20.253906 22.453125 20.503906 22.207031 20.75 21.957031 C 21.070312 21.636719 21.386719 21.320312 21.707031 21 C 21.953125 20.753906 22.195312 20.511719 22.441406 20.265625 C 22.558594 20.148438 22.675781 20.03125 22.792969 19.910156 C 22.957031 19.746094 23.121094 19.582031 23.285156 19.417969 C 23.332031 19.371094 23.382812 19.320312 23.433594 19.269531 C 23.683594 19.050781 23.683594 19.050781 23.765625 18.746094 C 24.125 18.785156 24.285156 18.992188 24.523438 19.25 C 24.621094 19.347656 24.621094 19.347656 24.71875 19.445312 C 27.324219 22.054688 29.925781 24.664062 32.53125 27.273438 C 32.710938 27.089844 32.738281 27.007812 32.804688 26.765625 C 32.832031 26.664062 32.832031 26.664062 32.859375 26.5625 C 32.878906 26.488281 32.894531 26.417969 32.914062 26.34375 C 32.933594 26.269531 32.953125 26.199219 32.972656 26.121094 C 33.09375 25.632812 33.195312 25.164062 33.203125 24.65625 C 33.210938 24.496094 33.210938 24.496094 33.214844 24.332031 C 33.265625 21.832031 32.53125 19.445312 30.820312 17.589844 C 30.582031 17.34375 30.347656 17.109375 30.085938 16.886719 C 30.03125 16.886719 29.976562 16.886719 29.917969 16.886719 C 29.917969 16.832031 29.917969 16.777344 29.917969 16.71875 C 29 15.96875 27.914062 15.421875 26.800781 15.03125 C 26.734375 15.007812 26.667969 14.984375 26.601562 14.960938 C 23.175781 13.886719 19.515625 15.109375 17.109375 17.648438 Z M 17.109375 17.648438 "/>
<path style=" stroke:none;fill-rule:nonzero;fill:rgb(13.725491%,22.352941%,74.901962%);fill-opacity:1;" d="M 116.046875 6.417969 C 116.125 6.488281 116.203125 6.558594 116.28125 6.632812 C 118.726562 8.96875 120.226562 12.347656 120.355469 15.726562 C 120.449219 19.949219 119.308594 23.53125 116.46875 26.683594 C 116.414062 26.746094 116.355469 26.808594 116.296875 26.875 C 115.789062 27.40625 115.203125 27.847656 114.617188 28.285156 C 114.566406 28.320312 114.519531 28.355469 114.472656 28.394531 C 111.667969 30.472656 108.160156 31.28125 104.730469 31.273438 C 104.652344 31.273438 104.574219 31.273438 104.496094 31.273438 C 101.59375 31.265625 98.890625 30.667969 96.328125 29.300781 C 96.277344 29.273438 96.222656 29.246094 96.171875 29.21875 C 94.894531 28.539062 93.796875 27.632812 92.789062 26.597656 C 92.742188 26.554688 92.695312 26.511719 92.648438 26.46875 C 90.851562 24.777344 89.699219 22.3125 89.164062 19.925781 C 89.148438 19.867188 89.136719 19.808594 89.121094 19.746094 C 88.6875 17.785156 88.699219 15.382812 89.164062 13.425781 C 89.179688 13.355469 89.199219 13.28125 89.214844 13.210938 C 89.6875 11.269531 90.523438 9.492188 91.777344 7.9375 C 91.8125 7.890625 91.851562 7.84375 91.890625 7.792969 C 93.167969 6.21875 94.691406 4.988281 96.496094 4.054688 C 96.554688 4.023438 96.617188 3.992188 96.675781 3.960938 C 102.84375 0.800781 110.921875 1.746094 116.046875 6.417969 Z M 101.195312 13.410156 C 100.320312 14.476562 99.914062 15.851562 100.035156 17.226562 C 100.179688 18.457031 100.625 19.648438 101.554688 20.503906 C 102.261719 21.023438 103.113281 21.46875 103.996094 21.53125 C 104.136719 21.542969 104.136719 21.542969 104.28125 21.550781 C 105.425781 21.59375 106.515625 21.378906 107.453125 20.6875 C 107.503906 20.648438 107.558594 20.613281 107.613281 20.574219 C 108.46875 19.921875 108.972656 18.773438 109.136719 17.730469 C 109.261719 16.089844 109.089844 14.625 108.015625 13.308594 C 107.246094 12.496094 106.242188 12.015625 105.125 11.96875 C 103.566406 11.9375 102.304688 12.234375 101.195312 13.410156 Z M 101.195312 13.410156 "/>
<path style=" stroke:none;fill-rule:nonzero;fill:rgb(13.725491%,22.352941%,74.901962%);fill-opacity:1;" d="M 147.71875 5.484375 C 147.839844 5.597656 147.957031 5.710938 148.074219 5.824219 C 148.148438 5.902344 148.226562 5.976562 148.304688 6.054688 C 148.398438 6.148438 148.398438 6.148438 148.496094 6.25 C 148.539062 6.289062 148.585938 6.332031 148.632812 6.375 C 148.777344 6.507812 148.777344 6.507812 149 6.753906 C 148.964844 7.140625 148.6875 7.367188 148.433594 7.632812 C 148.382812 7.6875 148.332031 7.742188 148.277344 7.800781 C 147.507812 8.605469 146.71875 9.386719 145.929688 10.167969 C 145.613281 10.480469 145.300781 10.796875 144.988281 11.109375 C 144.914062 11.179688 144.84375 11.25 144.773438 11.320312 C 144.410156 11.683594 144.058594 12.050781 143.726562 12.441406 C 143.582031 12.609375 143.429688 12.765625 143.269531 12.917969 C 142.996094 12.800781 142.828125 12.65625 142.625 12.4375 C 141.320312 11.105469 139.367188 10.386719 137.511719 10.367188 C 137.441406 10.367188 137.367188 10.363281 137.289062 10.363281 C 137.21875 10.363281 137.144531 10.359375 137.070312 10.359375 C 136.539062 10.355469 136.117188 10.417969 135.695312 10.769531 C 135.488281 11.035156 135.476562 11.238281 135.515625 11.566406 C 136.171875 12.46875 137.542969 12.644531 138.550781 12.917969 C 141.695312 13.78125 145.058594 14.796875 146.820312 17.789062 C 147.988281 19.878906 148.222656 22.59375 147.589844 24.898438 C 147.296875 25.878906 146.871094 26.738281 146.21875 27.527344 C 146.160156 27.597656 146.101562 27.667969 146.042969 27.742188 C 144.886719 29.089844 143.414062 29.984375 141.753906 30.566406 C 141.648438 30.601562 141.546875 30.640625 141.441406 30.679688 C 140.011719 31.175781 138.4375 31.417969 136.925781 31.429688 C 136.855469 31.429688 136.78125 31.429688 136.707031 31.429688 C 133.683594 31.449219 133.683594 31.449219 132.230469 31.15625 C 132.101562 31.132812 132.101562 31.132812 131.972656 31.109375 C 128.300781 30.378906 124.851562 28.84375 122.117188 26.261719 C 122.253906 25.894531 122.53125 25.660156 122.804688 25.394531 C 123.097656 25.113281 123.378906 24.832031 123.640625 24.523438 C 124.144531 23.933594 124.710938 23.402344 125.261719 22.855469 C 126.007812 22.117188 126.007812 22.117188 126.710938 21.339844 C 126.921875 21.09375 127.148438 20.871094 127.378906 20.644531 C 127.445312 20.578125 127.445312 20.578125 127.515625 20.507812 C 127.625 20.398438 127.738281 20.289062 127.847656 20.179688 C 128.160156 20.316406 128.382812 20.515625 128.636719 20.738281 C 129.171875 21.199219 129.75 21.546875 130.375 21.871094 C 130.425781 21.894531 130.472656 21.921875 130.523438 21.949219 C 132.195312 22.828125 134.410156 23.371094 136.273438 22.902344 C 136.625 22.785156 136.816406 22.707031 137.015625 22.390625 C 137.039062 22.035156 136.957031 21.839844 136.78125 21.53125 C 136.472656 21.242188 136.144531 21.085938 135.753906 20.945312 C 135.695312 20.921875 135.636719 20.902344 135.574219 20.878906 C 134.957031 20.660156 134.328125 20.488281 133.691406 20.328125 C 131.90625 19.867188 130.140625 19.394531 128.519531 18.492188 C 128.386719 18.417969 128.386719 18.417969 128.246094 18.34375 C 126.554688 17.40625 125.339844 15.941406 124.777344 14.085938 C 124.730469 13.894531 124.683594 13.703125 124.644531 13.511719 C 124.625 13.425781 124.605469 13.339844 124.585938 13.25 C 124.164062 10.902344 124.484375 8.496094 125.824219 6.5 C 127.691406 3.980469 130.464844 2.660156 133.492188 2.109375 C 133.550781 2.101562 133.613281 2.089844 133.671875 2.078125 C 138.273438 1.269531 144.171875 2.316406 147.71875 5.484375 Z M 147.71875 5.484375 "/>
<path style=" stroke:none;fill-rule:nonzero;fill:rgb(13.725491%,22.352941%,74.901962%);fill-opacity:1;" d="M 74.078125 1.914062 C 74.144531 1.914062 74.214844 1.917969 74.285156 1.917969 C 77.390625 1.929688 80.519531 2.539062 83.265625 4.054688 C 83.398438 4.125 83.398438 4.125 83.535156 4.195312 C 84.488281 4.726562 85.300781 5.394531 86.078125 6.152344 C 86.132812 6.207031 86.191406 6.261719 86.25 6.316406 C 86.300781 6.371094 86.351562 6.421875 86.40625 6.476562 C 86.453125 6.519531 86.5 6.566406 86.546875 6.613281 C 86.636719 6.753906 86.636719 6.753906 86.617188 6.929688 C 86.523438 7.160156 86.382812 7.285156 86.203125 7.453125 C 85.96875 7.675781 85.75 7.902344 85.539062 8.148438 C 85.15625 8.589844 84.746094 8.996094 84.332031 9.40625 C 84.25 9.488281 84.167969 9.570312 84.085938 9.652344 C 83.824219 9.914062 83.5625 10.171875 83.300781 10.433594 C 83 10.734375 82.695312 11.039062 82.390625 11.339844 C 82.273438 11.460938 82.152344 11.578125 82.03125 11.699219 C 81.636719 12.09375 81.257812 12.488281 80.90625 12.917969 C 80.632812 12.789062 80.464844 12.660156 80.261719 12.4375 C 78.972656 11.121094 76.984375 10.386719 75.152344 10.367188 C 75.082031 10.367188 75.007812 10.363281 74.933594 10.363281 C 74.859375 10.363281 74.785156 10.359375 74.710938 10.359375 C 74.21875 10.355469 73.855469 10.429688 73.40625 10.640625 C 73.203125 10.871094 73.160156 11.015625 73.113281 11.316406 C 73.160156 11.636719 73.269531 11.753906 73.488281 11.988281 C 74.367188 12.539062 75.484375 12.730469 76.46875 12.996094 C 79.507812 13.816406 82.769531 14.894531 84.445312 17.792969 C 85.570312 19.796875 85.847656 22.53125 85.273438 24.761719 C 84.617188 27.03125 83.117188 28.652344 81.105469 29.800781 C 79.546875 30.652344 77.855469 31.097656 76.101562 31.324219 C 76.039062 31.335938 75.980469 31.34375 75.917969 31.351562 C 73.96875 31.589844 71.789062 31.542969 69.863281 31.15625 C 69.734375 31.132812 69.734375 31.132812 69.601562 31.105469 C 66.050781 30.382812 62.3125 28.929688 59.75 26.261719 C 59.875 25.964844 60.042969 25.785156 60.273438 25.5625 C 60.503906 25.34375 60.71875 25.117188 60.925781 24.875 C 61.449219 24.265625 62.039062 23.710938 62.609375 23.144531 C 63.371094 22.394531 63.371094 22.394531 64.085938 21.597656 C 64.339844 21.308594 64.613281 21.042969 64.886719 20.773438 C 64.945312 20.714844 65.003906 20.65625 65.0625 20.597656 C 65.203125 20.457031 65.34375 20.320312 65.484375 20.179688 C 65.730469 20.300781 65.90625 20.417969 66.105469 20.609375 C 67.96875 22.273438 70.511719 23.082031 72.984375 23.050781 C 73.613281 23.007812 74.125 22.917969 74.585938 22.460938 C 74.625 22.0625 74.628906 21.867188 74.4375 21.515625 C 73.613281 20.671875 71.878906 20.480469 70.78125 20.1875 C 67.691406 19.355469 64.714844 18.339844 62.976562 15.464844 C 61.9375 13.570312 61.777344 10.902344 62.347656 8.847656 C 63.101562 6.460938 64.796875 4.597656 66.996094 3.449219 C 68.027344 2.9375 69.101562 2.550781 70.222656 2.289062 C 70.292969 2.273438 70.363281 2.257812 70.433594 2.242188 C 71.640625 1.984375 72.847656 1.910156 74.078125 1.914062 Z M 74.078125 1.914062 "/>
<path style=" stroke:none;fill-rule:nonzero;fill:rgb(96.470588%,32.549021%,10.588235%);fill-opacity:1;" d="M 23.765625 18.746094 C 23.90625 18.773438 24.042969 18.800781 24.1875 18.828125 C 24.1875 18.886719 24.1875 18.941406 24.1875 19 C 24.238281 19.019531 24.292969 19.039062 24.34375 19.0625 C 24.558594 19.1875 24.585938 19.289062 24.691406 19.503906 C 24.742188 19.53125 24.792969 19.554688 24.84375 19.578125 C 25.066406 19.691406 25.210938 19.835938 25.386719 20.011719 C 25.449219 20.070312 25.507812 20.128906 25.570312 20.191406 C 25.703125 20.347656 25.703125 20.347656 25.703125 20.519531 C 25.777344 20.550781 25.777344 20.550781 25.855469 20.585938 C 26.046875 20.691406 26.171875 20.800781 26.328125 20.953125 C 26.382812 21.007812 26.4375 21.0625 26.496094 21.121094 C 26.554688 21.179688 26.613281 21.242188 26.675781 21.304688 C 26.769531 21.398438 26.769531 21.398438 26.867188 21.496094 C 27.078125 21.707031 27.285156 21.914062 27.492188 22.125 C 27.640625 22.269531 27.785156 22.417969 27.929688 22.5625 C 28.308594 22.945312 28.691406 23.328125 29.074219 23.710938 C 29.460938 24.105469 29.851562 24.496094 30.242188 24.886719 C 31.003906 25.652344 31.765625 26.421875 32.53125 27.1875 C 32.613281 27.105469 32.699219 27.023438 32.785156 26.933594 C 32.886719 27.121094 32.949219 27.261719 32.980469 27.472656 C 33.050781 27.753906 33.164062 27.867188 33.367188 28.070312 C 33.441406 28.140625 33.511719 28.210938 33.582031 28.285156 C 33.699219 28.398438 33.699219 28.398438 33.816406 28.511719 C 33.894531 28.59375 33.976562 28.671875 34.054688 28.75 C 34.222656 28.917969 34.390625 29.085938 34.558594 29.25 C 34.773438 29.460938 34.984375 29.671875 35.199219 29.886719 C 35.402344 30.089844 35.609375 30.292969 35.8125 30.496094 C 35.925781 30.609375 35.925781 30.609375 36.042969 30.726562 C 36.351562 31.03125 36.660156 31.332031 36.992188 31.613281 C 37.183594 31.777344 37.328125 31.914062 37.480469 32.105469 C 37.660156 32.351562 37.660156 32.351562 37.925781 32.507812 C 37.925781 32.5625 37.925781 32.621094 37.925781 32.675781 C 37.980469 32.675781 38.035156 32.675781 38.09375 32.675781 C 38.214844 32.804688 38.214844 32.804688 38.34375 32.96875 C 38.527344 33.195312 38.527344 33.195312 38.765625 33.351562 C 38.765625 33.410156 38.765625 33.464844 38.765625 33.523438 C 38.820312 33.542969 38.875 33.566406 38.929688 33.589844 C 39.105469 33.691406 39.105469 33.691406 39.1875 33.945312 C 39.242188 33.972656 39.300781 34 39.355469 34.027344 C 39.414062 34.054688 39.46875 34.082031 39.527344 34.113281 C 39.554688 34.195312 39.582031 34.28125 39.609375 34.367188 C 39.722656 34.425781 39.832031 34.480469 39.945312 34.535156 C 40.066406 34.640625 40.179688 34.75 40.292969 34.863281 C 40.359375 34.929688 40.425781 34.996094 40.496094 35.066406 C 40.566406 35.140625 40.636719 35.210938 40.710938 35.289062 C 40.785156 35.363281 40.859375 35.4375 40.933594 35.511719 C 41.132812 35.710938 41.328125 35.910156 41.523438 36.105469 C 41.800781 36.386719 42.074219 36.667969 42.351562 36.945312 C 42.5 37.09375 42.648438 37.242188 42.792969 37.390625 C 42.859375 37.460938 42.925781 37.527344 42.996094 37.59375 C 43.082031 37.683594 43.082031 37.683594 43.171875 37.773438 C 43.3125 37.917969 43.3125 37.917969 43.488281 37.996094 C 43.503906 38.191406 43.503906 38.191406 43.488281 38.417969 C 43.359375 38.566406 43.359375 38.566406 43.1875 38.703125 C 42.835938 38.988281 42.515625 39.296875 42.199219 39.621094 C 42.085938 39.734375 41.976562 39.847656 41.863281 39.960938 C 41.6875 40.140625 41.515625 40.316406 41.339844 40.492188 C 41.171875 40.664062 41 40.835938 40.828125 41.007812 C 40.75 41.089844 40.75 41.089844 40.671875 41.171875 C 40.546875 41.300781 40.414062 41.421875 40.285156 41.542969 C 40.226562 41.542969 40.171875 41.542969 40.117188 41.542969 C 40.085938 41.617188 40.085938 41.617188 40.050781 41.691406 C 39.929688 41.910156 39.796875 42.054688 39.609375 42.21875 C 39.554688 42.21875 39.5 42.21875 39.441406 42.21875 C 39.417969 42.273438 39.394531 42.328125 39.371094 42.382812 C 39.273438 42.554688 39.273438 42.554688 39.019531 42.640625 C 38.992188 42.695312 38.964844 42.753906 38.933594 42.808594 C 38.90625 42.867188 38.878906 42.921875 38.851562 42.976562 C 38.769531 43.007812 38.683594 43.035156 38.597656 43.0625 C 38.570312 43.148438 38.542969 43.230469 38.515625 43.316406 C 38.375 43.289062 38.234375 43.261719 38.09375 43.230469 C 38.09375 43.175781 38.09375 43.121094 38.09375 43.0625 C 38.039062 43.0625 37.980469 43.0625 37.925781 43.0625 C 37.78125 42.925781 37.640625 42.785156 37.503906 42.640625 C 37.4375 42.574219 37.371094 42.507812 37.304688 42.441406 C 34.109375 39.242188 30.917969 36.042969 27.726562 32.847656 C 27.726562 37.777344 27.726562 42.710938 27.726562 47.792969 C 25.25 47.792969 22.777344 47.792969 20.226562 47.792969 C 20.199219 42.886719 20.171875 37.984375 20.140625 32.929688 C 18.75 34.324219 17.359375 35.71875 15.929688 37.152344 C 15.871094 37.152344 15.816406 37.152344 15.757812 37.152344 C 15.738281 37.207031 15.714844 37.261719 15.691406 37.316406 C 15.589844 37.488281 15.589844 37.488281 15.339844 37.574219 C 15.308594 37.628906 15.28125 37.6875 15.253906 37.742188 C 15.226562 37.800781 15.199219 37.855469 15.167969 37.914062 C 15.085938 37.941406 15.003906 37.96875 14.917969 37.996094 C 14.917969 38.050781 14.917969 38.109375 14.917969 38.164062 C 14.859375 38.164062 14.804688 38.164062 14.75 38.164062 C 14.71875 38.25 14.691406 38.332031 14.664062 38.417969 C 14.609375 38.417969 14.554688 38.417969 14.496094 38.417969 C 14.496094 38.472656 14.496094 38.53125 14.496094 38.585938 C 14.441406 38.585938 14.382812 38.585938 14.328125 38.585938 C 14.300781 38.671875 14.269531 38.753906 14.242188 38.839844 C 14.1875 38.839844 14.132812 38.839844 14.074219 38.839844 C 14.074219 38.898438 14.074219 38.953125 14.074219 39.011719 C 14.019531 39.011719 13.960938 39.011719 13.90625 39.011719 C 13.878906 39.09375 13.851562 39.175781 13.820312 39.261719 C 13.765625 39.261719 13.710938 39.261719 13.652344 39.261719 C 13.652344 39.320312 13.652344 39.375 13.652344 39.433594 C 13.597656 39.433594 13.542969 39.433594 13.484375 39.433594 C 13.457031 39.515625 13.429688 39.597656 13.398438 39.683594 C 13.34375 39.683594 13.289062 39.683594 13.230469 39.683594 C 13.230469 39.742188 13.230469 39.796875 13.230469 39.855469 C 13.175781 39.855469 13.121094 39.855469 13.0625 39.855469 C 13.0625 39.910156 13.0625 39.964844 13.0625 40.023438 C 12.945312 40.160156 12.945312 40.160156 12.808594 40.277344 C 12.753906 40.277344 12.699219 40.277344 12.640625 40.277344 C 12.640625 40.332031 12.640625 40.386719 12.640625 40.445312 C 12.527344 40.582031 12.527344 40.582031 12.386719 40.699219 C 12.332031 40.699219 12.277344 40.699219 12.21875 40.699219 C 12.21875 40.753906 12.21875 40.808594 12.21875 40.867188 C 12.109375 40.972656 12.109375 40.972656 11.957031 41.09375 C 11.742188 41.273438 11.558594 41.449219 11.382812 41.664062 C 11.152344 41.945312 10.894531 42.167969 10.621094 42.402344 C 10.441406 42.5625 10.296875 42.738281 10.144531 42.925781 C 9.964844 43.136719 9.859375 43.230469 9.609375 43.359375 C 9.308594 43.308594 9.277344 43.253906 9.09375 43.023438 C 8.746094 42.613281 8.371094 42.234375 7.992188 41.855469 C 7.917969 41.78125 7.84375 41.707031 7.769531 41.632812 C 7.617188 41.480469 7.464844 41.328125 7.3125 41.175781 C 7.078125 40.941406 6.847656 40.707031 6.613281 40.476562 C 6.464844 40.324219 6.316406 40.175781 6.167969 40.027344 C 6.097656 39.957031 6.03125 39.890625 5.960938 39.816406 C 5.664062 39.523438 5.371094 39.238281 5.050781 38.972656 C 4.96875 38.902344 4.886719 38.832031 4.804688 38.757812 C 4.804688 38.699219 4.804688 38.644531 4.804688 38.585938 C 4.722656 38.558594 4.722656 38.558594 4.640625 38.53125 C 4.464844 38.417969 4.464844 38.417969 4.402344 38.195312 C 4.394531 38.132812 4.390625 38.066406 4.382812 37.996094 C 4.441406 37.964844 4.503906 37.929688 4.566406 37.894531 C 4.824219 37.730469 5.015625 37.550781 5.230469 37.335938 C 5.269531 37.296875 5.3125 37.253906 5.355469 37.214844 C 5.488281 37.078125 5.625 36.941406 5.761719 36.804688 C 5.859375 36.707031 5.957031 36.609375 6.054688 36.511719 C 6.316406 36.246094 6.582031 35.980469 6.847656 35.714844 C 7.121094 35.4375 7.398438 35.160156 7.675781 34.878906 C 8.199219 34.355469 8.726562 33.828125 9.25 33.300781 C 9.84375 32.703125 10.441406 32.105469 11.035156 31.507812 C 12.054688 30.484375 13.074219 29.464844 14.089844 28.441406 C 14.132812 28.398438 14.175781 28.355469 14.21875 28.308594 C 14.335938 28.195312 14.449219 28.082031 14.5625 27.964844 C 14.671875 27.855469 14.78125 27.746094 14.894531 27.640625 C 15.023438 27.503906 15.09375 27.359375 15.167969 27.1875 C 15.253906 27.1875 15.335938 27.1875 15.421875 27.1875 C 15.566406 27.023438 15.707031 26.851562 15.84375 26.683594 C 15.898438 26.683594 15.957031 26.683594 16.011719 26.683594 C 16.011719 26.625 16.011719 26.570312 16.011719 26.511719 C 16.144531 26.382812 16.144531 26.382812 16.324219 26.234375 C 16.597656 26 16.855469 25.757812 17.109375 25.5 C 17.175781 25.4375 17.238281 25.371094 17.308594 25.304688 C 17.53125 25.078125 17.734375 24.839844 17.9375 24.59375 C 18.085938 24.4375 18.234375 24.304688 18.398438 24.164062 C 18.929688 23.699219 19.425781 23.191406 19.925781 22.6875 C 20.035156 22.578125 20.140625 22.472656 20.25 22.363281 C 20.476562 22.136719 20.703125 21.910156 20.929688 21.683594 C 21.21875 21.394531 21.507812 21.101562 21.796875 20.8125 C 22.019531 20.589844 22.242188 20.367188 22.46875 20.140625 C 22.574219 20.035156 22.679688 19.925781 22.789062 19.820312 C 22.9375 19.671875 23.085938 19.523438 23.234375 19.375 C 23.277344 19.328125 23.324219 19.285156 23.367188 19.238281 C 23.59375 19.011719 23.59375 19.011719 23.765625 18.746094 Z M 23.765625 18.746094 "/>
<path style=" stroke:none;fill-rule:nonzero;fill:rgb(96.862745%,32.941177%,10.588235%);fill-opacity:1;" d="M 53.597656 4.136719 C 53.933594 4.136719 54.265625 4.136719 54.609375 4.136719 C 54.609375 18.65625 54.609375 33.171875 54.609375 48.128906 C 54.277344 48.128906 53.945312 48.128906 53.597656 48.128906 C 53.597656 33.613281 53.597656 19.09375 53.597656 4.136719 Z M 53.597656 4.136719 "/>
<path style=" stroke:none;fill-rule:nonzero;fill:rgb(13.725491%,22.352941%,74.901962%);fill-opacity:1;" d="M 91.285156 39.578125 C 92.183594 40.394531 92.640625 41.507812 92.726562 42.703125 C 92.761719 44.015625 92.414062 45.167969 91.550781 46.171875 C 90.605469 47.152344 89.492188 47.589844 88.140625 47.625 C 87.035156 47.617188 85.816406 47.21875 85 46.429688 C 83.882812 45.101562 83.566406 43.851562 83.6875 42.132812 C 83.882812 41.015625 84.484375 40.03125 85.375 39.34375 C 87.25 38.03125 89.523438 38.171875 91.285156 39.578125 Z M 86.242188 40.894531 C 85.542969 41.707031 85.371094 42.507812 85.4375 43.5625 C 85.515625 44.300781 85.898438 44.863281 86.433594 45.355469 C 87.039062 45.820312 87.730469 46.003906 88.488281 45.933594 C 89.261719 45.808594 89.820312 45.511719 90.324219 44.910156 C 90.839844 44.199219 91.023438 43.429688 90.933594 42.554688 C 90.796875 41.796875 90.453125 41.148438 89.84375 40.667969 C 88.648438 39.839844 87.320312 39.960938 86.242188 40.894531 Z M 86.242188 40.894531 "/>
<path style=" stroke:none;fill-rule:nonzero;fill:rgb(13.725491%,22.352941%,74.901962%);fill-opacity:1;" d="M 74.488281 39.378906 C 75.21875 40.175781 75.523438 41.0625 75.519531 42.136719 C 75.519531 42.191406 75.519531 42.25 75.519531 42.308594 C 75.519531 42.496094 75.519531 42.679688 75.519531 42.867188 C 75.519531 42.996094 75.519531 43.125 75.519531 43.257812 C 75.519531 43.597656 75.519531 43.9375 75.515625 44.277344 C 75.515625 44.625 75.515625 44.976562 75.515625 45.324219 C 75.515625 46.003906 75.511719 46.6875 75.511719 47.371094 C 74.925781 47.371094 74.34375 47.371094 73.742188 47.371094 C 73.742188 47.199219 73.738281 47.03125 73.738281 46.859375 C 73.734375 46.300781 73.726562 45.746094 73.722656 45.1875 C 73.71875 44.847656 73.714844 44.511719 73.710938 44.171875 C 73.710938 43.847656 73.707031 43.519531 73.703125 43.195312 C 73.699219 43.070312 73.699219 42.945312 73.699219 42.820312 C 73.699219 42.648438 73.695312 42.472656 73.695312 42.296875 C 73.691406 42.199219 73.691406 42.101562 73.691406 41.996094 C 73.613281 41.351562 73.28125 40.878906 72.816406 40.445312 C 72.28125 40.097656 71.664062 40.121094 71.042969 40.191406 C 70.488281 40.355469 70.125 40.636719 69.792969 41.105469 C 69.574219 41.519531 69.507812 41.898438 69.5 42.367188 C 69.5 42.417969 69.5 42.472656 69.5 42.53125 C 69.496094 42.707031 69.496094 42.886719 69.492188 43.066406 C 69.492188 43.1875 69.488281 43.3125 69.488281 43.4375 C 69.484375 43.761719 69.480469 44.089844 69.476562 44.414062 C 69.472656 44.746094 69.46875 45.082031 69.464844 45.414062 C 69.457031 46.066406 69.449219 46.71875 69.445312 47.371094 C 68.859375 47.371094 68.273438 47.371094 67.671875 47.371094 C 67.671875 44.5 67.671875 41.628906 67.671875 38.671875 C 68.257812 38.671875 68.839844 38.671875 69.445312 38.671875 C 69.472656 38.949219 69.5 39.230469 69.527344 39.515625 C 69.617188 39.429688 69.707031 39.339844 69.800781 39.246094 C 71.144531 38.070312 73.199219 38.167969 74.488281 39.378906 Z M 74.488281 39.378906 "/>
<path style=" stroke:none;fill-rule:nonzero;fill:rgb(13.725491%,22.352941%,74.901962%);fill-opacity:1;" d="M 113.015625 38.671875 C 113.652344 38.671875 114.292969 38.671875 114.953125 38.671875 C 115.28125 39.382812 115.578125 40.101562 115.867188 40.828125 C 115.996094 41.15625 116.125 41.480469 116.253906 41.808594 C 116.28125 41.871094 116.308594 41.9375 116.332031 42.003906 C 116.554688 42.558594 116.777344 43.113281 117 43.664062 C 117.046875 43.777344 117.046875 43.777344 117.09375 43.894531 C 117.121094 43.964844 117.152344 44.03125 117.179688 44.101562 C 117.203125 44.160156 117.226562 44.21875 117.25 44.28125 C 117.304688 44.414062 117.304688 44.414062 117.398438 44.5 C 117.597656 44.03125 117.800781 43.566406 118.003906 43.101562 C 118.03125 43.03125 118.0625 42.960938 118.09375 42.886719 C 118.574219 41.773438 119.046875 40.65625 119.511719 39.535156 C 119.574219 39.382812 119.574219 39.382812 119.640625 39.226562 C 119.675781 39.136719 119.714844 39.050781 119.75 38.957031 C 119.839844 38.757812 119.839844 38.757812 119.925781 38.671875 C 120.070312 38.664062 120.214844 38.664062 120.355469 38.664062 C 120.488281 38.664062 120.488281 38.664062 120.621094 38.664062 C 120.714844 38.664062 120.804688 38.667969 120.898438 38.667969 C 121.039062 38.667969 121.039062 38.667969 121.179688 38.667969 C 121.40625 38.667969 121.636719 38.671875 121.863281 38.671875 C 120.949219 40.761719 119.984375 42.832031 119.035156 44.90625 C 118.585938 45.882812 118.136719 46.859375 117.691406 47.839844 C 117.664062 47.902344 117.636719 47.960938 117.605469 48.027344 C 117.238281 48.835938 116.867188 49.644531 116.507812 50.457031 C 116.308594 50.90625 116.308594 50.90625 116.214844 51 C 116.074219 51.007812 115.929688 51.007812 115.785156 51.007812 C 115.652344 51.007812 115.652344 51.007812 115.519531 51.007812 C 115.429688 51.007812 115.335938 51.007812 115.242188 51.003906 C 115.105469 51.003906 115.105469 51.003906 114.964844 51.003906 C 114.734375 51.003906 114.507812 51 114.277344 51 C 114.386719 50.773438 114.492188 50.546875 114.597656 50.320312 C 114.632812 50.25 114.667969 50.175781 114.699219 50.105469 C 114.894531 49.695312 115.085938 49.289062 115.28125 48.882812 C 115.324219 48.796875 115.363281 48.714844 115.40625 48.625 C 115.484375 48.460938 115.5625 48.296875 115.644531 48.128906 C 115.714844 47.976562 115.789062 47.824219 115.859375 47.667969 C 115.925781 47.527344 116 47.390625 116.074219 47.253906 C 116.261719 46.902344 116.261719 46.902344 116.28125 46.515625 C 116.21875 46.3125 116.136719 46.125 116.046875 45.933594 C 115.984375 45.773438 115.917969 45.609375 115.851562 45.449219 C 115.769531 45.253906 115.6875 45.058594 115.605469 44.863281 C 115.558594 44.753906 115.515625 44.644531 115.46875 44.535156 C 115.152344 43.785156 114.835938 43.039062 114.515625 42.289062 C 114.449219 42.132812 114.382812 41.976562 114.316406 41.820312 C 114.046875 41.191406 114.046875 41.191406 113.78125 40.5625 C 113.652344 40.265625 113.527344 39.96875 113.398438 39.671875 C 113.339844 39.535156 113.339844 39.535156 113.28125 39.394531 C 113.246094 39.3125 113.210938 39.230469 113.175781 39.144531 C 113.128906 39.035156 113.128906 39.035156 113.082031 38.921875 C 113.015625 38.757812 113.015625 38.757812 113.015625 38.671875 Z M 113.015625 38.671875 "/>
<path style=" stroke:none;fill-rule:nonzero;fill:rgb(13.725491%,22.352941%,74.901962%);fill-opacity:1;" d="M 83.992188 34.703125 C 84.15625 34.824219 84.15625 34.824219 84.277344 34.957031 C 84.277344 35.292969 84.277344 35.292969 84.074219 35.53125 C 83.988281 35.613281 83.898438 35.699219 83.8125 35.78125 C 83.769531 35.824219 83.722656 35.867188 83.679688 35.910156 C 83.570312 36.015625 83.460938 36.121094 83.347656 36.222656 C 83.117188 36.132812 82.914062 36.046875 82.699219 35.917969 C 82.261719 35.734375 81.84375 35.726562 81.386719 35.855469 C 80.9375 36.050781 80.761719 36.285156 80.566406 36.730469 C 80.480469 37.144531 80.457031 37.5625 80.4375 37.984375 C 80.425781 38.210938 80.410156 38.4375 80.398438 38.671875 C 81.316406 38.671875 82.234375 38.671875 83.179688 38.671875 C 83.179688 39.171875 83.179688 39.675781 83.179688 40.191406 C 82.261719 40.191406 81.34375 40.191406 80.398438 40.191406 C 80.398438 42.558594 80.398438 44.929688 80.398438 47.371094 C 79.84375 47.371094 79.285156 47.371094 78.714844 47.371094 C 78.714844 45 78.714844 42.632812 78.714844 40.191406 C 78.019531 40.191406 77.324219 40.191406 76.605469 40.191406 C 76.605469 39.691406 76.605469 39.1875 76.605469 38.671875 C 77.300781 38.671875 77.996094 38.671875 78.714844 38.671875 C 78.707031 38.386719 78.699219 38.105469 78.691406 37.8125 C 78.683594 36.785156 78.785156 35.929688 79.480469 35.121094 C 80.703125 33.886719 82.566406 33.726562 83.992188 34.703125 Z M 83.992188 34.703125 "/>
<path style=" stroke:none;fill-rule:nonzero;fill:rgb(13.725491%,22.352941%,74.901962%);fill-opacity:1;" d="M 101.382812 39.480469 C 101.527344 39.613281 101.527344 39.613281 101.722656 39.855469 C 101.71875 40.128906 101.609375 40.222656 101.425781 40.429688 C 101.339844 40.511719 101.253906 40.59375 101.167969 40.675781 C 101.125 40.71875 101.082031 40.761719 101.035156 40.808594 C 100.925781 40.914062 100.820312 41.015625 100.710938 41.121094 C 100.507812 41.027344 100.359375 40.941406 100.1875 40.792969 C 99.554688 40.3125 98.890625 40.15625 98.097656 40.191406 C 97.332031 40.316406 96.738281 40.601562 96.242188 41.207031 C 95.714844 42.050781 95.597656 42.9375 95.789062 43.917969 C 96.03125 44.671875 96.484375 45.230469 97.1875 45.597656 C 98.003906 45.976562 98.765625 45.898438 99.605469 45.625 C 99.984375 45.460938 100.261719 45.222656 100.542969 44.921875 C 100.882812 45.054688 101.085938 45.296875 101.320312 45.5625 C 101.378906 45.628906 101.378906 45.628906 101.4375 45.695312 C 101.53125 45.804688 101.628906 45.910156 101.722656 46.019531 C 101.4375 46.660156 100.832031 47.015625 100.210938 47.277344 C 98.941406 47.722656 97.71875 47.753906 96.457031 47.253906 C 95.257812 46.65625 94.476562 45.71875 94.035156 44.464844 C 93.628906 43.132812 93.863281 41.722656 94.503906 40.511719 C 95.082031 39.535156 96.015625 38.925781 97.085938 38.585938 C 98.632812 38.230469 100.128906 38.484375 101.382812 39.480469 Z M 101.382812 39.480469 "/>
<path style=" stroke:none;fill-rule:nonzero;fill:rgb(13.725491%,22.352941%,74.901962%);fill-opacity:1;" d="M 108.632812 35.042969 C 109.1875 35.042969 109.746094 35.042969 110.316406 35.042969 C 110.316406 36.238281 110.316406 37.4375 110.316406 38.671875 C 111.011719 38.671875 111.707031 38.671875 112.425781 38.671875 C 112.425781 39.171875 112.425781 39.675781 112.425781 40.191406 C 111.730469 40.191406 111.035156 40.191406 110.316406 40.191406 C 110.316406 42.558594 110.316406 44.929688 110.316406 47.371094 C 109.761719 47.371094 109.203125 47.371094 108.632812 47.371094 C 108.632812 45 108.632812 42.632812 108.632812 40.191406 C 107.9375 40.191406 107.242188 40.191406 106.523438 40.191406 C 106.523438 39.691406 106.523438 39.1875 106.523438 38.671875 C 107.21875 38.671875 107.914062 38.671875 108.632812 38.671875 C 108.632812 37.472656 108.632812 36.277344 108.632812 35.042969 Z M 108.632812 35.042969 "/>
<path style=" stroke:none;fill-rule:nonzero;fill:rgb(13.725491%,22.352941%,74.901962%);fill-opacity:1;" d="M 103.238281 38.671875 C 103.820312 38.671875 104.40625 38.671875 105.007812 38.671875 C 105.007812 41.542969 105.007812 44.414062 105.007812 47.371094 C 104.425781 47.371094 103.839844 47.371094 103.238281 47.371094 C 103.238281 44.5 103.238281 41.628906 103.238281 38.671875 Z M 103.238281 38.671875 "/>
<path style=" stroke:none;fill-rule:nonzero;fill:rgb(13.725491%,22.352941%,74.901962%);fill-opacity:1;" d="M 63.710938 38.671875 C 64.269531 38.671875 64.824219 38.671875 65.398438 38.671875 C 65.398438 41.542969 65.398438 44.414062 65.398438 47.371094 C 64.84375 47.371094 64.285156 47.371094 63.710938 47.371094 C 63.710938 44.5 63.710938 41.628906 63.710938 38.671875 Z M 63.710938 38.671875 "/>
<path style=" stroke:none;fill-rule:nonzero;fill:rgb(13.725491%,22.352941%,74.901962%);fill-opacity:1;" d="M 65.0625 34.871094 C 65.34375 35.035156 65.453125 35.152344 65.597656 35.441406 C 65.675781 35.835938 65.6875 36.191406 65.476562 36.546875 C 65.25 36.828125 65.082031 36.953125 64.722656 37.007812 C 64.332031 37.03125 64.105469 37.003906 63.796875 36.746094 C 63.515625 36.484375 63.464844 36.289062 63.433594 35.902344 C 63.441406 35.53125 63.546875 35.324219 63.796875 35.042969 C 64.210938 34.742188 64.582031 34.742188 65.0625 34.871094 Z M 65.0625 34.871094 "/>
<path style=" stroke:none;fill-rule:nonzero;fill:rgb(13.725491%,22.352941%,74.901962%);fill-opacity:1;" d="M 104.582031 34.851562 C 104.886719 35.015625 105.054688 35.144531 105.175781 35.464844 C 105.238281 35.886719 105.222656 36.21875 105.027344 36.601562 C 104.808594 36.847656 104.644531 36.960938 104.320312 37.011719 C 103.863281 37.019531 103.597656 36.960938 103.238281 36.644531 C 103.007812 36.269531 102.992188 35.890625 103.070312 35.464844 C 103.398438 34.890625 103.917969 34.59375 104.582031 34.851562 Z M 104.582031 34.851562 "/>
<path style=" stroke:none;fill-rule:nonzero;fill:rgb(63.137257%,28.627452%,36.470589%);fill-opacity:1;" d="M 15.167969 27.1875 C 15.226562 27.1875 15.28125 27.1875 15.339844 27.1875 C 15.265625 27.535156 15.214844 27.734375 14.960938 27.984375 C 14.75 28.117188 14.75 28.117188 14.578125 28.117188 C 14.691406 27.871094 14.8125 27.714844 15 27.527344 C 15.101562 27.347656 15.101562 27.347656 15.167969 27.1875 Z M 15.167969 27.1875 "/>
</g>
</svg>
